<svg width="2191" height="484" fill="none" xmlns="http://www.w3.org/2000/svg"><path d="M622.759 61.727h97.959l83.096 202.628h3.835l83.097-202.628h97.958V389H911.68V187.97h-2.717l-78.622 198.953h-49.219L702.5 186.852h-2.716V389h-77.025V61.727zM1020.04 389V143.545h78.15V389h-78.15zm39.15-274.059c-10.97 0-20.4-3.622-28.28-10.866-7.88-7.351-11.83-16.194-11.83-26.527 0-10.228 3.95-18.964 11.83-26.208 7.88-7.35 17.31-11.026 28.28-11.026 11.08 0 20.51 3.675 28.29 11.026 7.88 7.244 11.82 15.98 11.82 26.208 0 10.333-3.94 19.176-11.82 26.527-7.78 7.244-17.21 10.866-28.29 10.866zm148.88 134.073V389h-78.15V143.545h74.31v45.064h2.72c5.43-15.021 14.7-26.793 27.8-35.316 13.11-8.629 28.71-12.944 46.82-12.944 17.26 0 32.23 3.889 44.91 11.666 12.78 7.67 22.69 18.43 29.72 32.28 7.14 13.743 10.66 29.829 10.55 48.26V389h-78.14V247.896c.1-13.637-3.36-24.29-10.39-31.961-6.93-7.67-16.57-11.505-28.93-11.505-8.2 0-15.44 1.811-21.73 5.433-6.18 3.516-10.97 8.576-14.38 15.181-3.3 6.605-5.01 14.595-5.11 23.97zm327.61-105.469v57.529h-154.85v-57.529h154.85zm-122.41-58.806h78.14v227.077c0 4.794.75 8.683 2.24 11.666 1.6 2.876 3.89 4.953 6.87 6.232 2.98 1.172 6.55 1.758 10.71 1.758 2.98 0 6.12-.267 9.42-.799 3.41-.64 5.97-1.172 7.68-1.598l11.82 56.409c-3.73 1.066-9 2.397-15.82 3.995-6.71 1.598-14.75 2.61-24.13 3.037-18.32.852-34.04-1.279-47.14-6.392-13-5.221-22.96-13.317-29.88-24.29-6.82-10.973-10.12-24.769-9.91-41.389V84.739zm227.69-23.012V389h-78.14V61.727h78.14zM1672.7 389V143.545h78.14V389h-78.14zm39.15-274.059c-10.97 0-20.4-3.622-28.28-10.866-7.89-7.351-11.83-16.194-11.83-26.527 0-10.228 3.94-18.964 11.83-26.208 7.88-7.35 17.31-11.026 28.28-11.026 11.08 0 20.51 3.675 28.29 11.026 7.88 7.244 11.82 15.98 11.82 26.208 0 10.333-3.94 19.176-11.82 26.527-7.78 7.244-17.21 10.866-28.29 10.866zm210.24 28.604v57.529H1764.2v-57.529h157.89zM1797.12 389V131.081c0-18.963 3.57-34.677 10.71-47.141 7.14-12.571 17.05-21.946 29.72-28.125 12.68-6.286 27.33-9.429 43.95-9.429 10.87 0 21.09.853 30.68 2.557 9.7 1.598 16.89 3.036 21.57 4.315l-12.46 57.209c-2.88-.959-6.39-1.758-10.55-2.397-4.05-.64-7.88-.959-11.5-.959-9.17 0-15.45 2.024-18.86 6.072-3.41 4.049-5.11 9.588-5.11 16.62V389h-78.15zm192.34 92.045c-9.37 0-18.22-.745-26.53-2.237-8.3-1.385-15.44-3.249-21.41-5.593l17.26-56.729c7.67 2.557 14.6 4.048 20.77 4.474 6.29.426 11.67-.586 16.14-3.036 4.59-2.344 8.1-6.552 10.55-12.624l3.04-7.351-87.25-254.404h81.81l45.23 175.143h2.55l45.87-175.143h82.29l-92.52 268.946c-4.47 13.423-10.81 25.248-19.02 35.476-8.09 10.333-18.59 18.43-31.48 24.289-12.78 5.86-28.55 8.789-47.3 8.789z" fill="#0F172A"/><path d="M130.833 179.492a172.125 172.125 0 0149.485-119.517h-.058L59.006 181.228h.058c-.451.356-.877.742-1.273 1.158a173.171 173.171 0 00-16.264 226.302l122.469-122.469 1.274-1.216a171.953 171.953 0 01-34.437-105.511zM425.257 304.971a173.408 173.408 0 01-179.479 39.53 169.91 169.91 0 01-45.492-24.482l-1.273 1.273-122.47 122.412a173.4 173.4 0 00226.244-16.264l1.216-1.215 121.254-121.254z" fill="#0C8C5E"/><path d="M477.232 181.228V16a8 8 0 00-8-8H304.004a172.706 172.706 0 00-122.47 50.759l-1.215 1.215a172.065 172.065 0 00-43.929 77.383 176.186 176.186 0 0142.135-5.614 172.41 172.41 0 01105.511 34.495 172.647 172.647 0 0159.44 80.508 174.038 174.038 0 014.399 102.096 171.78 171.78 0 0077.382-43.929l1.216-1.158a172.7 172.7 0 0050.759-122.527z" fill="#18E299"/><defs><clipPath id="clip0_1656_31"><path fill="#fff" d="M0 0h2191v484H0z"/></clipPath><clipPath id="clip1_1656_31"><path fill="#fff" transform="translate(7 8)" d="M0 0h470v470H0z"/></clipPath></defs></svg>